<svg xmlns="http://www.w3.org/2000/svg" viewBox="0 0 608 340">
  <path fill="#ffffff" d="M0 0h608v340H0z"/>
  <g fill="none" fill-rule="nonzero">
    <g transform="translate(206 65)">
      <path fill="#FCD748"
            d="M74.7 66c0-3-2.3-5.6-5.3-5.9-3-.2-5.6 1.9-6.1 4.9-.5 3 1.4 5.8 4.3 6.6v172c0 .7.6 1.3 1.3 1.3.8 0 1.4-.6 1.4-1.3v-172c2.6-.7 4.4-3 4.4-5.7z"/>
      <ellipse cx="68.6" cy="69" fill="#FCD748" rx="68.4" ry="69"/>
      <path fill="#F9B514"
            d="M70.3 138a69 69 0 0 1-2.7 0V71.6A5.8 5.8 0 0 1 69.4 60c3 .3 5.3 2.8 5.3 5.8 0 2.7-1.8 5-4.4 5.7V138z"/>
    </g>
    <g transform="translate(48 31)">
      <ellipse cx="100.1" cy="100.6" fill="#278AE2" rx="99.8" ry="100.6"/>
      <path fill="#278AE2"
            d="M105.5 100.6a5.8 5.8 0 0 0-11.5-1c-.4 3 1.5 5.9 4.4 6.6v172.3c0 .7.6 1.3 1.4 1.3.7 0 1.3-.6 1.3-1.3V106.2c2.6-.6 4.4-3 4.4-5.6z"/>
      <path fill="#054AC8"
            d="M101.1 201.2a101 101 0 0 1-2.7 0v-95a5.8 5.8 0 0 1 1.8-11.4c3 .2 5.3 2.8 5.3 5.8 0 2.7-1.8 5-4.4 5.6v95z"/>
    </g>
    <path fill="#26743F" d="M233.5 79a101.3 101.3 0 0 1-2.7 109 69.8 69.8 0 0 1 2.7-109z"/>
    <g transform="translate(332 60)">
      <path fill="#FF7BAC"
            d="M70.5 65.5a5.8 5.8 0 0 0-5.7 5.1c-.3 3 1.5 5.7 4.3 6.4v172.6c0 .7.7 1.3 1.4 1.3s1.3-.6 1.4-1.3V77a5.8 5.8 0 0 0 4.3-6.4c-.4-2.9-2.8-5-5.7-5z"/>
      <ellipse cx="70.5" cy="71.6" fill="#FF7BAC" rx="70.3" ry="71.4"/>
      <path fill="#FF3B74"
            d="M71.9 143a70.7 70.7 0 0 1-2.8 0V77a5.8 5.8 0 0 1-4.3-6.4c.4-2.9 2.8-5 5.7-5 2.9 0 5.3 2.1 5.7 5 .3 3-1.5 5.7-4.3 6.4v66z"/>
      <path fill="#FC6730" d="M6 100a72 72 0 0 1-1.2-53.8A69.8 69.8 0 0 1 5.9 100z"/>
    </g>
    <g transform="translate(501 101)">
      <path fill="#FF931E"
            d="M35.1 29.7c0-3-2.3-5.6-5.2-5.8-3-.3-5.7 1.8-6.2 4.8s1.4 5.9 4.3 6.6v172.3c0 .7.7 1.3 1.4 1.3s1.3-.6 1.4-1.3V35.3c2.5-.6 4.3-3 4.3-5.6z"/>
      <ellipse cx="29.4" cy="29.7" fill="#FF931E" rx="29.3" ry="29.7"/>
      <path fill="#FF5403"
            d="M30.8 59.3a29.4 29.4 0 0 1-2.8 0v-24A5.8 5.8 0 0 1 30 24c3 .2 5.2 2.8 5.2 5.8 0 2.6-1.8 5-4.3 5.6v24z"/>
    </g>
  </g>
</svg>
